<?xml version="1.0" encoding="utf-8"?>
<!-- Uploaded to: SVG Repo, www.svgrepo.com, Generator: SVG Repo Mixer Tools -->
<svg fill="#000000" width="800px" height="800px" viewBox="0 0 32 32" version="1.1" xmlns="http://www.w3.org/2000/svg">
<title>liberapay</title>
<path d="M19.896 13.387c-0.010-0-0.023-0-0.035-0-0.421 0-0.832 0.045-1.228 0.129l0.038-0.007-1.428 5.938c0.235 0.052 0.505 0.082 0.782 0.082 0.026 0 0.052-0 0.078-0.001l-0.004 0c0.014 0 0.030 0 0.047 0 0.508 0 0.99-0.109 1.425-0.305l-0.022 0.009c0.439-0.199 0.81-0.478 1.109-0.822l0.003-0.004c0.306-0.36 0.549-0.784 0.706-1.248l0.008-0.027c0.162-0.472 0.255-1.017 0.255-1.583 0-0.021-0-0.042-0-0.063l0 0.003c0.001-0.025 0.001-0.054 0.001-0.083 0-0.519-0.145-1.005-0.395-1.418l0.007 0.012c-0.27-0.377-0.706-0.62-1.199-0.62-0.052 0-0.103 0.003-0.153 0.008l0.006-0.001zM20.284 10.836c0.037-0.001 0.080-0.002 0.124-0.002 0.664 0 1.299 0.128 1.88 0.36l-0.034-0.012c0.536 0.219 0.989 0.542 1.353 0.946l0.003 0.003c0.346 0.393 0.615 0.863 0.779 1.38l0.007 0.027c0.162 0.504 0.255 1.083 0.255 1.684 0 0.014-0 0.028-0 0.042v-0.001c0 0.027 0.001 0.059 0.001 0.091 0 0.947-0.18 1.851-0.508 2.681l0.017-0.050c-0.326 0.828-0.785 1.536-1.359 2.134l0.002-0.002c-0.575 0.591-1.267 1.065-2.040 1.382l-0.040 0.015c-0.761 0.316-1.646 0.5-2.573 0.5-0.024 0-0.048-0-0.072-0l0.004 0c-0.491-0-0.97-0.045-1.436-0.13l0.049 0.007-0.918 3.694h-3.020l3.387-14.119c0.488-0.152 1.117-0.304 1.757-0.422l0.11-0.017c0.661-0.123 1.421-0.194 2.198-0.194 0.027 0 0.055 0 0.082 0l-0.004-0zM15.41 5.978l-2.837 11.753c-0.048 0.198-0.081 0.429-0.091 0.666l-0 0.008c-0.001 0.018-0.002 0.039-0.002 0.060 0 0.175 0.042 0.34 0.117 0.486l-0.003-0.006c0.095 0.168 0.239 0.299 0.412 0.375l0.006 0.002c0.243 0.106 0.525 0.173 0.822 0.184l0.004 0-0.612 2.509c-0.072 0.003-0.157 0.005-0.243 0.005-0.731 0-1.429-0.14-2.070-0.393l0.038 0.013c-0.504-0.211-0.911-0.57-1.177-1.021l-0.006-0.011c-0.22-0.406-0.349-0.889-0.349-1.401 0-0.035 0.001-0.069 0.002-0.103l-0 0.005c0.013-0.647 0.098-1.268 0.247-1.863l-0.012 0.057 2.592-10.834zM3.903 1.004c-1.601 0.001-2.898 1.298-2.899 2.899v24.193c0.001 1.601 1.298 2.898 2.899 2.899h24.193c0 0 0 0 0 0 1.601 0 2.899-1.298 2.899-2.899 0 0 0 0 0-0v0-24.193c0-1.601-1.298-2.899-2.899-2.899v0z"></path>
</svg>