<?xml version="1.0" encoding="utf-8"?><!-- Uploaded to: SVG Repo, www.svgrepo.com, Generator: SVG Repo Mixer Tools -->
<svg width="800px" height="800px" viewBox="0 0 24 24" fill="none" xmlns="http://www.w3.org/2000/svg">
<path fill-rule="evenodd" clip-rule="evenodd" d="M7 1C6.44772 1 6 1.44772 6 2V3H5C3.34315 3 2 4.34315 2 6V20C2 21.6569 3.34315 23 5 23H13.101C12.5151 22.4259 12.0297 21.7496 11.6736 21H5C4.44772 21 4 20.5523 4 20V11H20V11.2899C20.7224 11.5049 21.396 11.8334 22 12.2547V6C22 4.34315 20.6569 3 19 3H18V2C18 1.44772 17.5523 1 17 1C16.4477 1 16 1.44772 16 2V3H8V2C8 1.44772 7.55228 1 7 1ZM16 6V5H8V6C8 6.55228 7.55228 7 7 7C6.44772 7 6 6.55228 6 6V5H5C4.44772 5 4 5.44772 4 6V9H20V6C20 5.44772 19.5523 5 19 5H18V6C18 6.55228 17.5523 7 17 7C16.4477 7 16 6.55228 16 6Z" fill="#0F0F0F"/>
<path d="M15.2929 17.7071C15.6834 17.3166 16.3166 17.3166 16.7071 17.7071L17.3483 18.3482L19.2473 16.4491C19.6379 16.0586 20.271 16.0586 20.6616 16.4491C21.0521 16.8397 21.0521 17.4728 20.6616 17.8634L18.1213 20.4036C18.0349 20.49 17.9367 20.5573 17.8318 20.6054C17.4488 20.8294 16.9488 20.7772 16.6203 20.4487L15.2929 19.1213C14.9024 18.7308 14.9024 18.0976 15.2929 17.7071Z" fill="#0F0F0F"/>
<path fill-rule="evenodd" clip-rule="evenodd" d="M24 18C24 21.3137 21.3137 24 18 24C14.6863 24 12 21.3137 12 18C12 14.6863 14.6863 12 18 12C21.3137 12 24 14.6863 24 18ZM13.9819 18C13.9819 20.2191 15.7809 22.0181 18 22.0181C20.2191 22.0181 22.0181 20.2191 22.0181 18C22.0181 15.7809 20.2191 13.9819 18 13.9819C15.7809 13.9819 13.9819 15.7809 13.9819 18Z" fill="#0F0F0F"/>
</svg>