<?xml version="1.0" encoding="utf-8"?>
<!-- Generator: Adobe Illustrator 25.0.0, SVG Export Plug-In . SVG Version: 6.00 Build 0)  -->
<svg version="1.1" id="Layer_1" xmlns="http://www.w3.org/2000/svg" xmlns:xlink="http://www.w3.org/1999/xlink" x="0px" y="0px"
	 viewBox="0 0 336 336" style="enable-background:new 0 0 336 336;" xml:space="preserve">
<style type="text/css">
	.st0{fill-rule:evenodd;clip-rule:evenodd;}
	.st1{fill:#FFFFFF;}
</style>
<circle class="st0" cx="168" cy="168" r="168"/>
<g>
	<path class="st1" d="M224.8,159c23.5,0,42.5-19,42.5-42.5S248.3,74,224.8,74s-42.5,19-42.5,42.5C182.3,140,201.3,159,224.8,159z
		 M224.8,98.4c10,0,18.1,8.1,18.1,18.1s-8.1,18.1-18.1,18.1s-18.1-8.1-18.1-18.1S214.8,98.4,224.8,98.4z"/>
	<path class="st1" d="M138.2,74c-7.2,0-13.8,2.4-19.1,6.4c-5.3-4-12-6.4-19.1-6.4c-17.7,0-32,14.3-32,31.9V159h24.4v-53.4
		c0-4,3.2-7.2,7.2-7.2s7.2,3.2,7.2,7.2V159h24.4v-53.4c0-4,3.2-7.2,7.2-7.2s7.2,3.2,7.2,7.2V159H170v-53.1
		C170,88.3,155.8,74,138.2,74z"/>
	<path class="st1" d="M224.8,177.4c-23.5,0-42.5,19-42.5,42.5s19,42.5,42.5,42.5s42.5-19,42.5-42.5S248.3,177.4,224.8,177.4z
		 M224.8,238c-10,0-18.1-8.1-18.1-18.1s8.1-18.1,18.1-18.1s18.1,8.1,18.1,18.1C242.9,229.9,234.8,238,224.8,238z"/>
	<path class="st1" d="M138.2,177.4c-7.2,0-13.8,2.4-19.1,6.4c-5.3-4-12-6.4-19.1-6.4c-17.6,0-31.9,14.3-31.9,31.9v53.2h24.4V209
		c0-4,3.2-7.2,7.2-7.2s7.2,3.2,7.2,7.2v53.4h24.4V209c0-4,3.2-7.2,7.2-7.2s7.2,3.2,7.2,7.2v53.4H170v-53.2
		C170,191.7,155.8,177.4,138.2,177.4z"/>
</g>
</svg>
